<svg width="100" height="100" viewBox="0 0 100 100" fill="none" xmlns="http://www.w3.org/2000/svg">
<path d="M44.0625 74.2814C44.0625 83.1252 40.6375 88.0689 34.5375 88.0689C28.425 88.0627 25 83.1252 25 74.2814C25 65.4564 28.425 60.5127 34.5375 60.5127C40.6375 60.5127 44.0625 65.4502 44.0625 74.2814ZM34.5375 64.2064C31.15 64.2064 29.3375 67.7252 29.3375 74.2814C29.3375 74.8314 29.3562 75.3627 29.375 75.8564L39.1187 68.7127C38.3312 65.7502 36.775 64.2127 34.5375 64.2127V64.2064ZM29.9625 79.8814C30.75 82.8314 32.2875 84.3689 34.5375 84.3689C37.9125 84.3689 39.725 80.8502 39.725 74.2814C39.725 73.7502 39.7062 73.2189 39.6875 72.7189L29.9625 79.8814ZM67.8437 83.7814V87.5002H49.0937V83.7814H56.475V65.6252H56.1625L49.0625 70.2939V65.9939L56.5 61.0814H60.8125V83.7877H67.8437V83.7814Z" fill="#28B0CE"/>
<path d="M87.5 87.5V28.125L59.375 0L25 0C21.6848 0 18.5054 1.31696 16.1612 3.66117C13.817 6.00537 12.5 9.18479 12.5 12.5V87.5C12.5 90.8152 13.817 93.9946 16.1612 96.3388C18.5054 98.683 21.6848 100 25 100H75C78.3152 100 81.4946 98.683 83.8388 96.3388C86.183 93.9946 87.5 90.8152 87.5 87.5ZM59.375 18.75C59.375 21.2364 60.3627 23.621 62.1209 25.3791C63.879 27.1373 66.2636 28.125 68.75 28.125H81.25V87.5C81.25 89.1576 80.5915 90.7473 79.4194 91.9194C78.2473 93.0915 76.6576 93.75 75 93.75H25C23.3424 93.75 21.7527 93.0915 20.5806 91.9194C19.4085 90.7473 18.75 89.1576 18.75 87.5V12.5C18.75 10.8424 19.4085 9.25268 20.5806 8.08058C21.7527 6.90848 23.3424 6.25 25 6.25H59.375V18.75Z" fill="#28B0CE"/>
</svg>
